<svg width="585" height="128" viewBox="0 0 585 128" fill="none" xmlns="http://www.w3.org/2000/svg">
<path d="M196.86 108.458H171.394V32.7868L165.647 21.424L196.86 18.4423V108.458Z" fill="white"/>
<path d="M265.166 42.2154C263.5 41.1947 261.754 40.3082 259.927 39.5561C258.155 38.7502 256.409 38.0786 254.689 37.5414C253.024 37.0041 251.466 36.6012 250.015 36.3326C248.565 36.064 247.41 35.9297 246.55 35.9297C240.264 35.9297 237.121 38.0249 237.121 42.2154C237.121 43.6123 237.712 44.8479 238.894 45.9224C240.076 46.9969 241.634 48.0177 243.568 48.9847C245.502 49.9518 247.705 50.9188 250.177 51.8858C252.702 52.8529 255.253 53.9274 257.832 55.1093C260.411 56.2912 262.936 57.6075 265.407 59.058C267.932 60.4549 270.162 62.1203 272.096 64.0544C274.03 65.9348 275.588 68.1106 276.77 70.5819C277.952 73.0533 278.543 75.9007 278.543 79.1241C278.543 84.7115 277.576 89.4393 275.642 93.3074C273.708 97.1756 271.048 100.345 267.664 102.817C264.279 105.288 260.277 107.088 255.656 108.216C251.09 109.29 246.174 109.828 240.909 109.828C238.868 109.828 236.477 109.586 233.737 109.102C230.997 108.619 228.203 107.974 225.356 107.168C222.562 106.362 219.849 105.422 217.217 104.348C214.584 103.22 212.354 102.011 210.528 100.721L218.587 85.4099C220.521 86.3769 222.535 87.2903 224.631 88.1499C226.779 89.0095 228.875 89.7616 230.916 90.4063C232.958 90.9973 234.919 91.4808 236.799 91.8569C238.679 92.1792 240.345 92.3404 241.795 92.3404C243.3 92.3404 244.75 92.1255 246.147 91.6957C247.598 91.2659 248.86 90.6212 249.935 89.7616C251.009 88.8483 251.869 87.7201 252.514 86.3769C253.158 84.9801 253.481 83.3147 253.481 81.3806C253.481 79.4465 252.89 77.781 251.708 76.3842C250.579 74.9336 249.048 73.6174 247.114 72.4354C245.234 71.2535 243.058 70.1522 240.587 69.1314C238.169 68.1106 235.671 67.0361 233.092 65.9079C230.567 64.726 228.069 63.4635 225.598 62.1203C223.18 60.7772 221.004 59.2192 219.07 57.4463C217.19 55.6197 215.659 53.5513 214.477 51.2411C213.348 48.8773 212.784 46.1104 212.784 42.9407C212.784 38.589 213.59 34.8552 215.202 31.7391C216.867 28.6231 219.177 26.0981 222.132 24.164C225.141 22.1762 228.74 20.7256 232.931 19.8123C237.121 18.899 241.742 18.4423 246.792 18.4423C249.156 18.4423 251.52 18.6841 253.883 19.1676C256.301 19.5974 258.638 20.1884 260.895 20.9405C263.151 21.6389 265.246 22.4448 267.18 23.3581C269.168 24.2714 270.887 25.2116 272.338 26.1787L265.166 42.2154Z" fill="white"/>
<path d="M366.961 95.725C364.973 97.7665 362.824 99.6469 360.514 101.366C358.203 103.085 355.652 104.563 352.858 105.798C350.064 107.034 347.002 108.001 343.671 108.699C340.34 109.398 336.66 109.747 332.631 109.747C324.894 109.747 318.286 108.485 312.806 105.96C307.326 103.434 302.84 100.077 299.348 95.8862C295.91 91.6419 293.385 86.7799 291.773 81.3C290.215 75.8201 289.436 70.0984 289.436 64.135C289.436 60.3206 289.812 56.5599 290.564 52.8529C291.316 49.0922 292.445 45.5463 293.949 42.2154C295.507 38.8308 297.414 35.6879 299.671 32.7868C301.981 29.8856 304.667 27.3875 307.729 25.2922C310.792 23.1969 314.23 21.5584 318.044 20.3764C321.913 19.1408 326.157 18.5229 330.777 18.5229C337.224 18.5229 342.811 19.49 347.539 21.424C352.267 23.3044 356.162 25.9638 359.224 29.4021C362.286 32.7868 364.57 36.8698 366.074 41.6513C367.578 46.4328 368.331 51.7247 368.331 57.5269C368.331 58.9775 368.223 60.8847 368.008 63.2485C367.847 65.6124 367.632 68.1643 367.363 70.9043H313.37C313.478 73.8054 314.096 76.5722 315.224 79.2047C316.352 81.7835 317.829 84.0399 319.656 85.974C321.536 87.9081 323.712 89.4661 326.184 90.648C328.655 91.7763 331.341 92.3404 334.242 92.3404C336.606 92.3404 338.836 92.0717 340.931 91.5345C343.08 90.9973 345.014 90.3526 346.733 89.6004C348.506 88.7946 350.064 87.9887 351.407 87.1828C352.75 86.3232 353.798 85.5711 354.55 84.9264L366.961 95.725ZM345.444 54.3034C345.444 51.8321 345.256 49.4951 344.88 47.2924C344.504 45.0897 343.805 43.1556 342.785 41.4901C341.764 39.771 340.367 38.4278 338.594 37.4608C336.875 36.44 334.645 35.9297 331.905 35.9297C329.595 35.9297 327.554 36.3326 325.781 37.1385C324.062 37.9443 322.557 38.9651 321.268 40.2007C320.032 41.3827 319.011 42.6452 318.206 43.9883C317.4 45.3314 316.782 46.5134 316.352 47.5341L315.224 51.8858L316.352 55.1093L345.444 54.3034Z" fill="white"/>
<path d="M385.303 108.458V32.7868L376.558 20.9405L409.962 18.4423V46.4865L431.318 19.8123H458.798L429.626 52.047L394.186 62.1203L428.417 63.0068L466.937 108.458H438.893L409.962 71.549V108.458H385.303Z" fill="white"/>
<path d="M541.851 108.458H514.532V95.4027L504.862 109.425C504.432 109.532 503.922 109.613 503.331 109.667C502.74 109.774 501.88 109.828 500.752 109.828C496.132 109.828 491.753 109.183 487.616 107.894C483.48 106.55 479.853 104.616 476.737 102.091C473.621 99.5126 471.123 96.3429 469.243 92.5821C467.416 88.8214 466.503 84.4966 466.503 79.6077C466.503 76.1693 467.013 73.0533 468.034 70.2596C469.055 67.4659 470.452 64.9677 472.224 62.765C474.051 60.5623 476.146 58.6551 478.51 57.0434C480.874 55.4316 483.399 54.1154 486.085 53.0946C488.825 52.0201 491.619 51.2411 494.466 50.7576C497.367 50.2204 500.188 49.9517 502.928 49.9517C505.346 49.9517 507.495 50.0323 509.375 50.1935C511.309 50.3547 513.001 50.5696 514.452 50.8382C514.398 48.6892 514.237 46.7283 513.968 44.9554C513.7 43.1287 513.216 41.5439 512.518 40.2007C511.819 38.8576 510.879 37.81 509.697 37.0579C508.515 36.3057 507.011 35.9297 505.184 35.9297C500.618 35.9297 496.239 36.4669 492.049 37.5414C487.858 38.5622 484.071 39.6904 480.686 40.926L472.305 26.0175C476.496 24.1371 480.605 22.6328 484.635 21.5046C487.214 20.7525 490.249 20.0541 493.741 19.4094C497.287 18.7647 501.343 18.4423 505.91 18.4423C512.894 18.4423 518.589 19.3019 522.994 21.0211C527.453 22.6866 530.918 25.0773 533.39 28.1933C535.915 31.2556 537.634 34.9626 538.547 39.3143C539.514 43.6123 539.998 48.3669 539.998 53.5781V91.9374L541.851 108.458ZM514.532 66.9555C513.243 66.7944 511.819 66.6601 510.261 66.5526C508.757 66.3914 507.307 66.3109 505.91 66.3109C503.976 66.3109 502.068 66.5795 500.188 67.1167C498.361 67.654 496.723 68.4598 495.272 69.5343C493.822 70.6088 492.64 71.9788 491.726 73.6442C490.813 75.3097 490.356 77.2707 490.356 79.5271C490.356 81.3537 490.652 83.046 491.243 84.604C491.834 86.162 492.613 87.532 493.58 88.714C494.547 89.8422 495.621 90.7286 496.803 91.3733C498.039 92.018 499.275 92.3404 500.51 92.3404C502.068 92.3404 503.546 92.0986 504.943 91.6151C506.393 91.1316 507.709 90.5406 508.891 89.8422C510.127 89.09 511.202 88.2842 512.115 87.4246C513.082 86.565 513.888 85.786 514.532 85.0876V66.9555Z" fill="white"/>
<path d="M584.368 109.254H558.903V33.5831L553.156 22.2204L584.368 19.2386V109.254Z" fill="white"/>
<path d="M84.359 43.6304C74.2983 33.566 67.4121 15.991 63.9947 0C60.572 15.9943 53.6932 33.573 43.6288 43.6374C33.5681 53.6948 15.9878 60.581 0 64.0053C15.9943 67.4227 33.5714 74.3048 43.6321 84.3696C53.6928 94.4303 60.579 112.009 64.0016 128C67.419 112.006 74.3032 94.427 84.3622 84.3626C94.4229 74.3019 112.003 67.419 127.991 63.9947C112 60.5773 94.4234 53.6915 84.359 43.6304Z" fill="#19E094"/>
</svg>
